<svg xmlns="http://www.w3.org/2000/svg" width="128" height="128" viewBox="0 0 128 128" fill="none">
  <title>Missions icon</title>
  <desc>Warhammer-inspired missions icon with map and target</desc>
  <g stroke="currentColor" stroke-width="5" stroke-linecap="round" stroke-linejoin="round">
    <path d="M64 6 L96 14 L114 32 V94 L96 112 L64 122 L32 112 L14 94 V32 L32 14 Z"/>
    <path opacity="0.55" d="M64 18 L86 24 L102 40 V86 L86 102 L64 110 L42 102 L26 86 V40 L42 24 Z"/>
  </g>

  <g stroke="currentColor" stroke-width="4" stroke-linecap="round" stroke-linejoin="round" fill="none">
    <path d="M38 40 h38 l6 6 v34 H44 l-6 -6 z"/>
    <path d="M38 40 v34" opacity="0.6"/>
    <path d="M44 46 h38" opacity="0.6"/>
    <path d="M49 73 l6 -6"/>
    <path d="M49 67 l6 6"/>
    <path d="M44 72 C54 58, 62 56, 71 49" stroke-dasharray="5 5"/>
    <circle cx="77" cy="71" r="11"/>
    <path d="M77 56 V86"/>
    <path d="M62 71 H92"/>
  </g>
</svg>
