<svg xmlns="http://www.w3.org/2000/svg" width="128" height="128" viewBox="0 0 128 128" fill="none">
  <title>Score icon</title>
  <desc>Warhammer-inspired score icon with star and laurel</desc>
  <g stroke="currentColor" stroke-width="5" stroke-linecap="round" stroke-linejoin="round">
    <path d="M64 6 L96 14 L114 32 V94 L96 112 L64 122 L32 112 L14 94 V32 L32 14 Z"/>
    <path opacity="0.55" d="M64 18 L86 24 L102 40 V86 L86 102 L64 110 L42 102 L26 86 V40 L42 24 Z"/>
  </g>

  <g stroke="currentColor" stroke-width="4" stroke-linecap="round" stroke-linejoin="round" fill="none">
    <path d="M44 80 C34 72, 31 57, 37 44"/>
    <path d="M84 80 C94 72, 97 57, 91 44"/>
    <path d="M40 69 l-8 -3"/>
    <path d="M38 58 l-9 0"/>
    <path d="M40 48 l-8 3"/>
    <path d="M88 69 l8 -3"/>
    <path d="M90 58 l9 0"/>
    <path d="M88 48 l8 3"/>
    <path d="M64 35 l6 13 14 2 -10 10 2 14 -12 -7 -12 7 2 -14 -10 -10 14 -2 z" fill="currentColor" stroke="none"/>
    <circle cx="64" cy="58" r="3" fill="white" stroke="none"/>
  </g>
</svg>
