<svg xmlns="http://www.w3.org/2000/svg" width="128" height="128" viewBox="0 0 128 128" fill="none">
  <title>Phase icon</title>
  <desc>Warhammer-inspired phase icon with segmented dial</desc>
  <g stroke="currentColor" stroke-width="5" stroke-linecap="round" stroke-linejoin="round">
    <path d="M64 6 L96 14 L114 32 V94 L96 112 L64 122 L32 112 L14 94 V32 L32 14 Z"/>
    <path opacity="0.55" d="M64 18 L86 24 L102 40 V86 L86 102 L64 110 L42 102 L26 86 V40 L42 24 Z"/>
  </g>

  <g stroke="currentColor" stroke-width="4" stroke-linecap="round" stroke-linejoin="round" fill="none">
    <circle cx="64" cy="64" r="28"/>
    <path d="M64 36 V92"/>
    <path d="M36 64 H92"/>
    <path d="M64 64 L84 44 A28 28 0 0 1 92 64 Z" fill="currentColor" stroke="none" opacity="0.35"/>
    <path d="M96 42 A40 40 0 0 1 98 74"/>
    <path d="M98 74 l-7-4 m7 4 l-6 5"/>
  </g>
</svg>
